<svg width="49" height="46" viewBox="0 0 49 46" fill="none" xmlns="http://www.w3.org/2000/svg">
<path fill-rule="evenodd" clip-rule="evenodd" d="M10.4015 0H20.0016V4.8H29.6016V0H39.2016V4.8H48.8016V14.4H0.801514V4.8H10.4015V0ZM0.801514 19.2001H48.8016V30.2401C48.8016 35.6166 48.8016 38.3048 47.7552 40.3583C46.8348 42.1648 45.3662 43.6333 43.5597 44.5537C41.5063 45.6001 38.818 45.6001 33.4416 45.6001H16.1615C10.785 45.6001 8.09677 45.6001 6.04321 44.5537C4.23685 43.6333 2.76824 42.1648 1.84787 40.3583C0.801513 38.3048 0.801514 35.6166 0.801514 30.2401V19.2001ZM39.2016 32.4001C37.2134 32.4001 35.6016 34.0117 35.6016 36.0001C35.6016 37.9883 37.2134 39.6001 39.2016 39.6001C41.1897 39.6001 42.8016 37.9883 42.8016 36.0001C42.8016 34.0117 41.1897 32.4001 39.2016 32.4001Z" fill="#2D2D3A"/>
</svg>