<svg width="200" height="193" viewBox="0 0 200 193" fill="none" xmlns="http://www.w3.org/2000/svg">
<rect x="-5.96046e-08" y="0.707869" width="76.5186" height="184.183" rx="38.2593" transform="matrix(-0.706344 0.707869 0.706343 0.707869 61.5134 3.65601)" stroke="#2D2D3A"/>
<rect x="0.5" y="0.5" width="76.6022" height="183.983" rx="38.3011" transform="matrix(-4.36172e-08 1 1 4.38058e-08 7.38306 57.7705)" stroke="#2D2D3A"/>
<rect x="0.706343" width="76.5186" height="184.183" rx="38.2593" transform="matrix(0.706343 0.707869 0.706343 -0.707869 7.30313 134.178)" stroke="#2D2D3A"/>
<rect x="-0.5" y="0.5" width="76.4349" height="179.21" rx="38.2174" transform="matrix(-1 -8.76116e-08 -8.72343e-08 1 137.162 8.62256)" stroke="#2D2D3A"/>
<path d="M117.367 23.9868C132.487 8.83424 157.002 8.83509 172.122 23.9878C187.242 39.1405 187.242 63.7072 172.122 78.8599L154.599 96.4204L154.661 96.4829L99.9062 151.356L27.877 79.1714C12.7569 64.0186 12.7569 39.4511 27.877 24.2983C42.9971 9.14558 67.5117 9.14558 82.6318 24.2983L99.8438 41.5474L117.367 23.9868Z" fill="white"/>
<path d="M172.123 78.8608C187.243 63.708 187.243 39.1406 172.123 23.9878C157.003 8.83504 132.488 8.83503 117.368 23.9878L45.1343 96.3774L99.8891 151.25L172.123 78.8608Z" fill="url(#paint0_linear_607_1415)"/>
<path d="M27.8774 79.1714C12.7573 64.0186 12.7573 39.4511 27.8774 24.2984C42.9975 9.14559 67.512 9.14558 82.6321 24.2983L154.661 96.4831L99.9065 151.356L27.8774 79.1714Z" fill="url(#paint1_linear_607_1415)"/>
<defs>
<linearGradient id="paint0_linear_607_1415" x1="-84.6784" y1="215.562" x2="142.814" y2="46.1699" gradientUnits="userSpaceOnUse">
<stop stop-color="#991F49" stop-opacity="0"/>
<stop offset="1" stop-color="#FF337A"/>
</linearGradient>
<linearGradient id="paint1_linear_607_1415" x1="284.219" y1="215.412" x2="57.2324" y2="46.2939" gradientUnits="userSpaceOnUse">
<stop stop-color="#991F49" stop-opacity="0"/>
<stop offset="1" stop-color="#FF337A"/>
</linearGradient>
</defs>
</svg>
