<svg width="129" height="32" viewBox="0 0 129 32" fill="none" xmlns="http://www.w3.org/2000/svg">
<path d="M41.2812 6.92309L44.6814 3.22504C44.2359 2.80842 43.7617 2.44624 43.1763 2.08504L40.4726 6.28382L41.2812 6.92309ZM35.9017 21.3244C31.052 21.3244 27.7341 17.3483 27.7341 13.0951C27.7341 8.25704 31.9717 4.61539 36.5426 4.89347L36.8214 0.0277082C36.5426 0 36.236 0 35.9572 0C29.7969 0 24.1951 4.42045 23.0521 10.6489H13.686V15.5413H21.2682C20.3206 18.989 17.3937 21.3798 13.686 21.3798C8.91961 21.3798 5.29621 17.7105 5.29621 13.0951C5.29621 8.4797 8.94739 4.86576 13.7703 4.86576C15.972 4.86576 17.9791 5.72768 19.7353 7.11705L22.1879 2.94696C20.1252 1.13999 17.1705 0.0277082 13.7425 0.0277082C6.04926 0.0277082 0 5.89393 0 13.0951C0 20.2963 5.85381 26.1625 13.6304 26.1625C18.369 26.1625 22.4945 23.549 24.4451 19.6837C26.2856 23.549 30.9676 26.1625 36.0684 26.1625C40.807 26.1625 45.1279 23.4649 47.3295 19.5175L43.0929 17.0425C41.6712 19.7678 38.8286 21.3244 35.9017 21.3244ZM39.8594 5.94935L42.3686 1.61301C41.8388 1.27854 41.2534 1.00046 40.6681 0.806506L38.8564 5.44961L39.8594 5.94935ZM43.3717 9.61969L47.9704 7.64548C47.7482 7.11705 47.4694 6.61731 47.134 6.14429L42.9253 8.8686L43.3717 9.61969ZM42.4798 8.20163L46.6052 5.31008C46.2421 4.80935 45.7966 4.30961 45.3511 3.8643L41.8666 7.45153L42.4798 8.20163ZM120.163 26.2456C123.786 26.2456 127.382 24.3545 128.665 20.4902H124.427C123.675 21.8806 122.113 22.5753 120.497 22.5753C117.793 22.5753 115.758 20.9078 115.37 18.4606H128.915C128.97 17.9886 129 17.5432 129 17.0989C129 12.0936 125.069 8.14621 120.052 8.14621C115.034 8.14621 110.993 12.1223 110.993 17.1821C110.993 22.2418 115.035 26.2456 120.163 26.2456ZM120.135 11.7047C122.615 11.7047 124.455 13.1228 124.789 15.2356H115.396C115.898 13.1782 117.793 11.7047 120.135 11.7047ZM43.9293 11.3435L48.8624 10.4262C48.7513 9.78594 48.5836 9.17438 48.3336 8.56282L43.6505 10.3985L43.9293 11.3435ZM43.3717 16.5428L47.8871 18.6278C48.1659 18.0717 48.3614 17.4878 48.5836 16.8763L43.7894 15.4859L43.3717 16.5428ZM39.7483 0.500727C39.1907 0.361196 38.5776 0.194947 37.9088 0.0831246L37.1558 5.03201L38.3265 5.28237L39.7483 0.500727ZM71.5513 18.8495L66.8137 8.42428H62.3539L69.3497 23.549L65.3642 32H69.9351L80.3043 8.42428H75.9834L71.5513 18.8495ZM43.9293 14.8744L48.8068 15.9866C48.9467 15.3751 49.0579 14.7348 49.0856 14.0956L44.096 13.7621L43.9293 14.8744ZM97.3904 25.8844V16.0143C97.3904 13.3732 99.0632 11.5375 101.459 11.5375C103.69 11.5375 105.278 13.2336 105.278 15.6532V25.8844H109.32V15.4582C109.32 10.3421 105.724 8.06309 102.186 8.06309C99.731 8.06309 97.3349 9.14667 96.1641 11.1486C94.9934 9.06355 92.7352 8.09079 90.478 8.09079C88.4986 8.09079 86.548 8.8686 85.405 10.2867V8.42428H81.4185V25.8844H85.4606V16.0143C85.4606 13.3732 87.1334 11.5375 89.5305 11.5375C91.7599 11.5375 93.3483 13.2336 93.3483 15.6532V25.8844H97.3904ZM57.6153 2.58577L53.5177 4.14238V8.42428H50.814V12.0382H53.5177V19.2671C53.5177 23.4095 55.887 25.9398 59.9003 25.9398H61.2387V22.2695H60.7923C58.8694 22.2695 57.6153 21.1295 57.6153 18.9613V12.0382H61.2387V8.42428H57.6153V2.58577ZM44.0682 12.0382L44.096 13.0674L49.1412 13.1782C49.1968 12.5389 49.1412 11.872 49.0301 11.2881L44.0682 12.0382Z" fill="#2D2D3A"/>
</svg>
