<svg width="312" height="77" viewBox="0 0 312 77" fill="none" xmlns="http://www.w3.org/2000/svg">
<path d="M99.843 16.6587L108.067 7.76024C106.989 6.75777 105.842 5.88626 104.426 5.01713L97.8872 15.1205L99.843 16.6587ZM86.832 51.3119C75.1024 51.3119 67.0779 41.7444 67.0779 31.5101C67.0779 19.8685 77.3269 11.1058 88.3822 11.7749L89.0565 0.0666729C88.3822 0 87.6407 0 86.9664 0C72.0668 0 58.5183 10.6367 55.7539 25.6238H33.101V37.3963H51.4393C49.1476 45.6923 42.0686 51.4453 33.101 51.4453C21.573 51.4453 12.8094 42.6159 12.8094 31.5101C12.8094 20.4043 21.6402 11.7082 33.305 11.7082C38.6298 11.7082 43.4844 13.7822 47.7318 17.1254L53.6638 7.09113C48.6749 2.74311 41.5286 0.0666729 33.2378 0.0666729C14.6308 0.0666729 0 14.1823 0 31.5101C0 48.8379 14.158 62.9535 32.9666 62.9535C44.4274 62.9535 54.4053 56.6648 59.123 47.3639C63.5744 56.6648 74.8984 62.9535 87.2351 62.9535C98.6959 62.9535 109.146 56.4624 114.471 46.9639L104.225 41.0086C100.786 47.5663 93.911 51.3119 86.832 51.3119ZM96.4042 14.3156L102.473 3.88131C101.192 3.07648 99.7758 2.40737 98.36 1.94066L93.9782 13.1131L96.4042 14.3156ZM104.899 23.1474L116.022 18.3969C115.484 17.1254 114.81 15.9229 113.999 14.7847L103.819 21.3401L104.899 23.1474ZM102.742 19.7352L112.72 12.7774C111.841 11.5725 110.764 10.37 109.686 9.29848L101.259 17.9302L102.742 19.7352ZM290.626 63.1535C299.39 63.1535 308.086 58.6031 311.189 49.3046H300.94C299.121 52.6501 295.344 54.3217 291.435 54.3217C284.896 54.3217 279.974 50.3094 279.033 44.4208H311.794C311.928 43.285 312 42.2134 312 41.1443C312 29.1003 302.492 19.6018 290.357 19.6018C278.222 19.6018 268.448 29.1694 268.448 41.3443C268.448 53.5193 278.225 63.1535 290.626 63.1535ZM290.559 28.1645C296.558 28.1645 301.007 31.5767 301.816 36.6605H279.098C280.312 31.7101 284.896 28.1645 290.559 28.1645ZM106.248 27.2954L118.179 25.088C117.91 23.5474 117.505 22.0759 116.9 20.6043L105.573 25.0214L106.248 27.2954ZM104.899 39.8061L115.82 44.8232C116.494 43.485 116.967 42.0801 117.505 40.6085L105.909 37.263L104.899 39.8061ZM96.1355 1.20487C94.7869 0.869128 93.3039 0.469091 91.6865 0.200019L89.8652 12.1083L92.6968 12.7107L96.1355 1.20487ZM173.054 45.3566L161.596 20.2709H150.81L167.73 56.6648L158.09 77H169.145L194.224 20.2709H183.774L173.054 45.3566ZM106.248 35.7914L118.044 38.4679C118.383 36.9963 118.652 35.4557 118.719 33.9174L106.651 33.115L106.248 35.7914ZM235.549 62.2844V38.5345C235.549 32.1792 239.595 27.7621 245.39 27.7621C250.784 27.7621 254.626 31.8434 254.626 37.6654V62.2844H264.403V37.1963C264.403 24.8856 255.704 19.4018 247.147 19.4018C241.21 19.4018 235.415 22.0092 232.583 26.8263C229.751 21.8092 224.29 19.4685 218.83 19.4685C214.043 19.4685 209.325 21.3401 206.561 24.7523V20.2709H196.919V62.2844H206.695V38.5345C206.695 32.1792 210.741 27.7621 216.539 27.7621C221.931 27.7621 225.773 31.8434 225.773 37.6654V62.2844H235.549ZM139.349 6.22201L129.438 9.96759V20.2709H122.899V28.967H129.438V46.3614C129.438 56.329 135.168 62.4177 144.875 62.4177H148.112V53.5859H147.032C142.382 53.5859 139.349 50.8428 139.349 45.6257V28.967H148.112V20.2709H139.349V6.22201ZM106.584 28.967L106.651 31.4434L118.853 31.7101C118.988 30.1718 118.853 28.5669 118.584 27.162L106.584 28.967Z" fill="white"/>
</svg>
